<?xml version="1.0" encoding="UTF-8" standalone="no"?>
<!DOCTYPE svg PUBLIC "-//W3C//DTD SVG 1.1//EN"
 "http://www.w3.org/Graphics/SVG/1.1/DTD/svg11.dtd">
<!-- Generated by graphviz version 2.43.0 (0)
 -->
<!-- Title: incflo_compute_dt.cpp Pages: 1 -->
<svg width="2544pt" height="386pt"
 viewBox="0.00 0.00 2543.72 386.00" xmlns="http://www.w3.org/2000/svg" xmlns:xlink="http://www.w3.org/1999/xlink">
<g id="graph0" class="graph" transform="scale(1 1) rotate(0) translate(4 382)">
<title>incflo_compute_dt.cpp</title>
<polygon fill="white" stroke="transparent" points="-4,4 -4,-382 2539.72,-382 2539.72,4 -4,4"/>
<!-- Node1 -->
<g id="node1" class="node">
<title>Node1</title>
<g id="a_node1"><a xlink:title=" ">
<polygon fill="#bfbfbf" stroke="black" points="1012.51,-358.5 1012.51,-377.5 1138.51,-377.5 1138.51,-358.5 1012.51,-358.5"/>
<text text-anchor="middle" x="1075.51" y="-365.5" font-family="Helvetica,sans-Serif" font-size="10.00">incflo_compute_dt.cpp</text>
</a>
</g>
</g>
<!-- Node2 -->
<g id="node2" class="node">
<title>Node2</title>
<g id="a_node2"><a xlink:href="incflo_8_h.html" target="_top" xlink:title=" ">
<polygon fill="white" stroke="black" points="931.01,-302.5 931.01,-321.5 1034.01,-321.5 1034.01,-302.5 931.01,-302.5"/>
<text text-anchor="middle" x="982.51" y="-309.5" font-family="Helvetica,sans-Serif" font-size="10.00">amr&#45;wind/incflo.H</text>
</a>
</g>
</g>
<!-- Node1&#45;&gt;Node2 -->
<g id="edge1" class="edge">
<title>Node1&#45;&gt;Node2</title>
<path fill="none" stroke="midnightblue" d="M1060.56,-358.32C1045.92,-349.82 1023.37,-336.73 1006.27,-326.8"/>
<polygon fill="midnightblue" stroke="midnightblue" points="1007.82,-323.65 997.41,-321.65 1004.3,-329.7 1007.82,-323.65"/>
</g>
<!-- Node43 -->
<g id="node43" class="node">
<title>Node43</title>
<g id="a_node43"><a xlink:title=" ">
<polygon fill="white" stroke="#bfbfbf" points="1052.01,-302.5 1052.01,-321.5 1099.01,-321.5 1099.01,-302.5 1052.01,-302.5"/>
<text text-anchor="middle" x="1075.51" y="-309.5" font-family="Helvetica,sans-Serif" font-size="10.00">cmath</text>
</a>
</g>
</g>
<!-- Node1&#45;&gt;Node43 -->
<g id="edge82" class="edge">
<title>Node1&#45;&gt;Node43</title>
<path fill="none" stroke="midnightblue" d="M1075.51,-358.08C1075.51,-351.01 1075.51,-340.86 1075.51,-331.99"/>
<polygon fill="midnightblue" stroke="midnightblue" points="1079.01,-331.75 1075.51,-321.75 1072.01,-331.75 1079.01,-331.75"/>
</g>
<!-- Node44 -->
<g id="node44" class="node">
<title>Node44</title>
<g id="a_node44"><a xlink:title=" ">
<polygon fill="white" stroke="#bfbfbf" points="1117.51,-302.5 1117.51,-321.5 1161.51,-321.5 1161.51,-302.5 1117.51,-302.5"/>
<text text-anchor="middle" x="1139.51" y="-309.5" font-family="Helvetica,sans-Serif" font-size="10.00">limits</text>
</a>
</g>
</g>
<!-- Node1&#45;&gt;Node44 -->
<g id="edge83" class="edge">
<title>Node1&#45;&gt;Node44</title>
<path fill="none" stroke="midnightblue" d="M1085.79,-358.32C1095.34,-350.26 1109.79,-338.08 1121.29,-328.37"/>
<polygon fill="midnightblue" stroke="midnightblue" points="1123.65,-330.96 1129.04,-321.83 1119.14,-325.61 1123.65,-330.96"/>
</g>
<!-- Node3 -->
<g id="node3" class="node">
<title>Node3</title>
<g id="a_node3"><a xlink:title=" ">
<polygon fill="white" stroke="#bfbfbf" points="1129.51,-118 1129.51,-137 1239.51,-137 1239.51,-118 1129.51,-118"/>
<text text-anchor="middle" x="1184.51" y="-125" font-family="Helvetica,sans-Serif" font-size="10.00">AMReX_AmrCore.H</text>
</a>
</g>
</g>
<!-- Node2&#45;&gt;Node3 -->
<g id="edge2" class="edge">
<title>Node2&#45;&gt;Node3</title>
<path fill="none" stroke="midnightblue" d="M1005.03,-302.43C1024.22,-294.54 1052.02,-281.71 1073.51,-266 1119.58,-232.31 1157.32,-174.96 1174.5,-146.14"/>
<polygon fill="midnightblue" stroke="midnightblue" points="1177.68,-147.62 1179.69,-137.22 1171.63,-144.09 1177.68,-147.62"/>
</g>
<!-- Node4 -->
<g id="node4" class="node">
<title>Node4</title>
<g id="a_node4"><a xlink:title=" ">
<polygon fill="white" stroke="#bfbfbf" points="596.51,-246.5 596.51,-265.5 722.51,-265.5 722.51,-246.5 596.51,-246.5"/>
<text text-anchor="middle" x="659.51" y="-253.5" font-family="Helvetica,sans-Serif" font-size="10.00">AMReX_MultiFabUtil.H</text>
</a>
</g>
</g>
<!-- Node2&#45;&gt;Node4 -->
<g id="edge3" class="edge">
<title>Node2&#45;&gt;Node4</title>
<path fill="none" stroke="midnightblue" d="M931.33,-302.44C874.03,-292.87 781.26,-277.36 720.32,-267.17"/>
<polygon fill="midnightblue" stroke="midnightblue" points="720.89,-263.71 710.45,-265.52 719.73,-270.62 720.89,-263.71"/>
</g>
<!-- Node5 -->
<g id="node5" class="node">
<title>Node5</title>
<g id="a_node5"><a xlink:title=" ">
<polygon fill="white" stroke="#bfbfbf" points="741.01,-246.5 741.01,-265.5 860.01,-265.5 860.01,-246.5 741.01,-246.5"/>
<text text-anchor="middle" x="800.51" y="-253.5" font-family="Helvetica,sans-Serif" font-size="10.00">AMReX_ParmParse.H</text>
</a>
</g>
</g>
<!-- Node2&#45;&gt;Node5 -->
<g id="edge4" class="edge">
<title>Node2&#45;&gt;Node5</title>
<path fill="none" stroke="midnightblue" d="M953.67,-302.44C922.65,-293.24 873.18,-278.56 838.89,-268.39"/>
<polygon fill="midnightblue" stroke="midnightblue" points="839.79,-265.01 829.21,-265.52 837.8,-271.72 839.79,-265.01"/>
</g>
<!-- Node6 -->
<g id="node6" class="node">
<title>Node6</title>
<g id="a_node6"><a xlink:title=" ">
<polygon fill="white" stroke="#bfbfbf" points="226.51,-56.5 226.51,-75.5 338.51,-75.5 338.51,-56.5 226.51,-56.5"/>
<text text-anchor="middle" x="282.51" y="-63.5" font-family="Helvetica,sans-Serif" font-size="10.00">AMReX_iMultiFab.H</text>
</a>
</g>
</g>
<!-- Node2&#45;&gt;Node6 -->
<g id="edge5" class="edge">
<title>Node2&#45;&gt;Node6</title>
<path fill="none" stroke="midnightblue" d="M930.91,-310.86C745.72,-309.1 119.54,-292.08 6.51,-143 -1.82,-132.02 -2.42,-122.5 6.51,-112 32.9,-80.96 143.34,-71.28 216.26,-68.29"/>
<polygon fill="midnightblue" stroke="midnightblue" points="216.43,-71.79 226.29,-67.91 216.17,-64.79 216.43,-71.79"/>
</g>
<!-- Node7 -->
<g id="node7" class="node">
<title>Node7</title>
<g id="a_node7"><a xlink:title=" ">
<polygon fill="white" stroke="#bfbfbf" points="917.01,-246.5 917.01,-265.5 1048.01,-265.5 1048.01,-246.5 917.01,-246.5"/>
<text text-anchor="middle" x="982.51" y="-253.5" font-family="Helvetica,sans-Serif" font-size="10.00">hydro_NodalProjector.H</text>
</a>
</g>
</g>
<!-- Node2&#45;&gt;Node7 -->
<g id="edge6" class="edge">
<title>Node2&#45;&gt;Node7</title>
<path fill="none" stroke="midnightblue" d="M982.51,-302.08C982.51,-295.01 982.51,-284.86 982.51,-275.99"/>
<polygon fill="midnightblue" stroke="midnightblue" points="986.01,-275.75 982.51,-265.75 979.01,-275.75 986.01,-275.75"/>
</g>
<!-- Node8 -->
<g id="node8" class="node">
<title>Node8</title>
<g id="a_node8"><a xlink:href="incflo__enums_8_h.html" target="_top" xlink:title=" ">
<polygon fill="white" stroke="black" points="1737.01,-56.5 1737.01,-75.5 1878.01,-75.5 1878.01,-56.5 1737.01,-56.5"/>
<text text-anchor="middle" x="1807.51" y="-63.5" font-family="Helvetica,sans-Serif" font-size="10.00">amr&#45;wind/incflo_enums.H</text>
</a>
</g>
</g>
<!-- Node2&#45;&gt;Node8 -->
<g id="edge7" class="edge">
<title>Node2&#45;&gt;Node8</title>
<path fill="none" stroke="midnightblue" d="M1034.11,-302.63C1149.41,-283 1435.67,-229.03 1662.51,-143 1707.87,-125.8 1757.21,-97.74 1785.05,-80.96"/>
<polygon fill="midnightblue" stroke="midnightblue" points="1786.91,-83.92 1793.63,-75.73 1783.27,-77.95 1786.91,-83.92"/>
</g>
<!-- Node9 -->
<g id="node9" class="node">
<title>Node9</title>
<g id="a_node9"><a xlink:href="_c_f_d_sim_8_h.html" target="_top" xlink:title=" ">
<polygon fill="white" stroke="black" points="1774.51,-246.5 1774.51,-265.5 1890.51,-265.5 1890.51,-246.5 1774.51,-246.5"/>
<text text-anchor="middle" x="1832.51" y="-253.5" font-family="Helvetica,sans-Serif" font-size="10.00">amr&#45;wind/CFDSim.H</text>
</a>
</g>
</g>
<!-- Node2&#45;&gt;Node9 -->
<g id="edge8" class="edge">
<title>Node2&#45;&gt;Node9</title>
<path fill="none" stroke="midnightblue" d="M1034.18,-302.92C1036.99,-302.58 1039.78,-302.27 1042.51,-302 1360.44,-270.26 1442.21,-293.83 1760.51,-266 1761.78,-265.89 1763.06,-265.77 1764.35,-265.65"/>
<polygon fill="midnightblue" stroke="midnightblue" points="1764.79,-269.13 1774.39,-264.64 1764.09,-262.16 1764.79,-269.13"/>
</g>
<!-- Node10 -->
<g id="node10" class="node">
<title>Node10</title>
<g id="a_node10"><a xlink:href="_sim_time_8_h.html" target="_top" xlink:title=" ">
<polygon fill="white" stroke="black" points="254.51,-185 254.51,-204 398.51,-204 398.51,-185 254.51,-185"/>
<text text-anchor="middle" x="326.51" y="-192" font-family="Helvetica,sans-Serif" font-size="10.00">amr&#45;wind/core/SimTime.H</text>
</a>
</g>
</g>
<!-- Node2&#45;&gt;Node10 -->
<g id="edge80" class="edge">
<title>Node2&#45;&gt;Node10</title>
<path fill="none" stroke="midnightblue" d="M967.98,-302.26C939.7,-285.31 879.1,-249.34 868.51,-246 785.14,-219.7 539.24,-205.04 409.23,-198.93"/>
<polygon fill="midnightblue" stroke="midnightblue" points="409.08,-195.42 398.93,-198.45 408.76,-202.41 409.08,-195.42"/>
</g>
<!-- Node14 -->
<g id="node14" class="node">
<title>Node14</title>
<g id="a_node14"><a xlink:href="_field_repo_8_h.html" target="_top" xlink:title=" ">
<polygon fill="white" stroke="black" points="970.01,-185 970.01,-204 1119.01,-204 1119.01,-185 970.01,-185"/>
<text text-anchor="middle" x="1044.51" y="-192" font-family="Helvetica,sans-Serif" font-size="10.00">amr&#45;wind/core/FieldRepo.H</text>
</a>
</g>
</g>
<!-- Node2&#45;&gt;Node14 -->
<g id="edge81" class="edge">
<title>Node2&#45;&gt;Node14</title>
<path fill="none" stroke="midnightblue" d="M1009.43,-302.36C1026.22,-295.41 1046.48,-283.82 1056.51,-266 1065.6,-249.82 1059.98,-228.5 1053.73,-213.55"/>
<polygon fill="midnightblue" stroke="midnightblue" points="1056.86,-211.97 1049.48,-204.37 1050.5,-214.91 1056.86,-211.97"/>
</g>
<!-- Node9&#45;&gt;Node3 -->
<g id="edge9" class="edge">
<title>Node9&#45;&gt;Node3</title>
<path fill="none" stroke="midnightblue" d="M1787.04,-246.46C1689.31,-228.05 1451.97,-183.05 1253.51,-143 1247.36,-141.76 1240.92,-140.44 1234.54,-139.11"/>
<polygon fill="midnightblue" stroke="midnightblue" points="1235.12,-135.66 1224.62,-137.04 1233.69,-142.51 1235.12,-135.66"/>
</g>
<!-- Node9&#45;&gt;Node10 -->
<g id="edge10" class="edge">
<title>Node9&#45;&gt;Node10</title>
<path fill="none" stroke="midnightblue" d="M1774.39,-252.7C1542.23,-243.53 680.79,-209.5 409.13,-198.76"/>
<polygon fill="midnightblue" stroke="midnightblue" points="409.07,-195.26 398.94,-198.36 408.8,-202.25 409.07,-195.26"/>
</g>
<!-- Node9&#45;&gt;Node14 -->
<g id="edge14" class="edge">
<title>Node9&#45;&gt;Node14</title>
<path fill="none" stroke="midnightblue" d="M1774.24,-250.6C1636.53,-240.2 1290.48,-214.07 1129.42,-201.91"/>
<polygon fill="midnightblue" stroke="midnightblue" points="1129.32,-198.39 1119.08,-201.13 1128.79,-205.37 1129.32,-198.39"/>
</g>
<!-- Node32 -->
<g id="node32" class="node">
<title>Node32</title>
<g id="a_node32"><a xlink:href="_p_d_e_base_8_h.html" target="_top" xlink:title=" ">
<polygon fill="white" stroke="black" points="1813.01,-179.5 1813.01,-209.5 1968.01,-209.5 1968.01,-179.5 1813.01,-179.5"/>
<text text-anchor="start" x="1821.01" y="-197.5" font-family="Helvetica,sans-Serif" font-size="10.00">amr&#45;wind/equation_systems</text>
<text text-anchor="middle" x="1890.51" y="-186.5" font-family="Helvetica,sans-Serif" font-size="10.00">/PDEBase.H</text>
</a>
</g>
</g>
<!-- Node9&#45;&gt;Node32 -->
<g id="edge52" class="edge">
<title>Node9&#45;&gt;Node32</title>
<path fill="none" stroke="midnightblue" d="M1840.82,-246.48C1848.3,-238.79 1859.63,-227.17 1869.58,-216.96"/>
<polygon fill="midnightblue" stroke="midnightblue" points="1872.36,-219.13 1876.84,-209.52 1867.35,-214.24 1872.36,-219.13"/>
</g>
<!-- Node40 -->
<g id="node40" class="node">
<title>Node40</title>
<g id="a_node40"><a xlink:href="_physics_8_h.html" target="_top" xlink:title=" ">
<polygon fill="white" stroke="black" points="2227.01,-185 2227.01,-204 2364.01,-204 2364.01,-185 2227.01,-185"/>
<text text-anchor="middle" x="2295.51" y="-192" font-family="Helvetica,sans-Serif" font-size="10.00">amr&#45;wind/core/Physics.H</text>
</a>
</g>
</g>
<!-- Node9&#45;&gt;Node40 -->
<g id="edge69" class="edge">
<title>Node9&#45;&gt;Node40</title>
<path fill="none" stroke="midnightblue" d="M1890.58,-248.55C1963.51,-240.31 2092.42,-225.27 2202.51,-210 2212.34,-208.64 2222.74,-207.1 2232.89,-205.56"/>
<polygon fill="midnightblue" stroke="midnightblue" points="2233.57,-208.99 2242.93,-204.01 2232.51,-202.08 2233.57,-208.99"/>
</g>
<!-- Node42 -->
<g id="node42" class="node">
<title>Node42</title>
<g id="a_node42"><a xlink:href="_mesh_map_8_h.html" target="_top" xlink:title=" ">
<polygon fill="white" stroke="black" points="2045.51,-185 2045.51,-204 2193.51,-204 2193.51,-185 2045.51,-185"/>
<text text-anchor="middle" x="2119.51" y="-192" font-family="Helvetica,sans-Serif" font-size="10.00">amr&#45;wind/core/MeshMap.H</text>
</a>
</g>
</g>
<!-- Node9&#45;&gt;Node42 -->
<g id="edge74" class="edge">
<title>Node9&#45;&gt;Node42</title>
<path fill="none" stroke="midnightblue" d="M1873.63,-246.48C1924.99,-235.83 2012.86,-217.61 2068.47,-206.08"/>
<polygon fill="midnightblue" stroke="midnightblue" points="2069.38,-209.47 2078.46,-204.01 2067.96,-202.61 2069.38,-209.47"/>
</g>
<!-- Node11 -->
<g id="node11" class="node">
<title>Node11</title>
<g id="a_node11"><a xlink:title=" ">
<polygon fill="white" stroke="#bfbfbf" points="149.51,-118 149.51,-137 241.51,-137 241.51,-118 149.51,-118"/>
<text text-anchor="middle" x="195.51" y="-125" font-family="Helvetica,sans-Serif" font-size="10.00">AMReX_REAL.H</text>
</a>
</g>
</g>
<!-- Node10&#45;&gt;Node11 -->
<g id="edge11" class="edge">
<title>Node10&#45;&gt;Node11</title>
<path fill="none" stroke="midnightblue" d="M309.11,-184.87C286.89,-173.84 248.22,-154.66 222.25,-141.77"/>
<polygon fill="midnightblue" stroke="midnightblue" points="223.49,-138.48 212.97,-137.17 220.38,-144.75 223.49,-138.48"/>
</g>
<!-- Node12 -->
<g id="node12" class="node">
<title>Node12</title>
<g id="a_node12"><a xlink:title=" ">
<polygon fill="white" stroke="#bfbfbf" points="259.51,-118 259.51,-137 393.51,-137 393.51,-118 259.51,-118"/>
<text text-anchor="middle" x="326.51" y="-125" font-family="Helvetica,sans-Serif" font-size="10.00">AMReX_GpuQualifiers.H</text>
</a>
</g>
</g>
<!-- Node10&#45;&gt;Node12 -->
<g id="edge12" class="edge">
<title>Node10&#45;&gt;Node12</title>
<path fill="none" stroke="midnightblue" d="M326.51,-184.73C326.51,-175.18 326.51,-159.62 326.51,-147.28"/>
<polygon fill="midnightblue" stroke="midnightblue" points="330.01,-147.13 326.51,-137.13 323.01,-147.13 330.01,-147.13"/>
</g>
<!-- Node13 -->
<g id="node13" class="node">
<title>Node13</title>
<g id="a_node13"><a xlink:title=" ">
<polygon fill="white" stroke="#bfbfbf" points="15.51,-118 15.51,-137 131.51,-137 131.51,-118 15.51,-118"/>
<text text-anchor="middle" x="73.51" y="-125" font-family="Helvetica,sans-Serif" font-size="10.00">AMReX_Extension.H</text>
</a>
</g>
</g>
<!-- Node10&#45;&gt;Node13 -->
<g id="edge13" class="edge">
<title>Node10&#45;&gt;Node13</title>
<path fill="none" stroke="midnightblue" d="M293.17,-184.94C247.85,-173.29 166.74,-152.45 116.78,-139.62"/>
<polygon fill="midnightblue" stroke="midnightblue" points="117.47,-136.18 106.91,-137.08 115.73,-142.96 117.47,-136.18"/>
</g>
<!-- Node14&#45;&gt;Node3 -->
<g id="edge49" class="edge">
<title>Node14&#45;&gt;Node3</title>
<path fill="none" stroke="midnightblue" d="M1063.1,-184.87C1087.05,-173.75 1128.9,-154.32 1156.66,-141.43"/>
<polygon fill="midnightblue" stroke="midnightblue" points="1158.24,-144.55 1165.84,-137.17 1155.29,-138.2 1158.24,-144.55"/>
</g>
<!-- Node14&#45;&gt;Node6 -->
<g id="edge51" class="edge">
<title>Node14&#45;&gt;Node6</title>
<path fill="none" stroke="midnightblue" d="M969.88,-192.74C830.15,-190.42 534.66,-181.03 440.51,-143 420.3,-134.84 421.4,-122.86 402.51,-112 377.52,-97.64 347.11,-86.3 323.15,-78.59"/>
<polygon fill="midnightblue" stroke="midnightblue" points="323.9,-75.16 313.31,-75.51 321.81,-81.84 323.9,-75.16"/>
</g>
<!-- Node15 -->
<g id="node15" class="node">
<title>Node15</title>
<g id="a_node15"><a xlink:title=" ">
<polygon fill="white" stroke="#bfbfbf" points="1025.51,-0.5 1025.51,-19.5 1069.51,-19.5 1069.51,-0.5 1025.51,-0.5"/>
<text text-anchor="middle" x="1047.51" y="-7.5" font-family="Helvetica,sans-Serif" font-size="10.00">string</text>
</a>
</g>
</g>
<!-- Node14&#45;&gt;Node15 -->
<g id="edge15" class="edge">
<title>Node14&#45;&gt;Node15</title>
<path fill="none" stroke="midnightblue" d="M1005.32,-184.95C982.75,-177.8 956.21,-165.08 942.51,-143 935.24,-131.29 937.11,-124.68 942.51,-112 959,-73.24 998.48,-42.16 1024.05,-25.18"/>
<polygon fill="midnightblue" stroke="midnightblue" points="1026.25,-27.92 1032.77,-19.57 1022.47,-22.04 1026.25,-27.92"/>
</g>
<!-- Node16 -->
<g id="node16" class="node">
<title>Node16</title>
<g id="a_node16"><a xlink:title=" ">
<polygon fill="white" stroke="#bfbfbf" points="1963.01,-56.5 1963.01,-75.5 2056.01,-75.5 2056.01,-56.5 1963.01,-56.5"/>
<text text-anchor="middle" x="2009.51" y="-63.5" font-family="Helvetica,sans-Serif" font-size="10.00">unordered_map</text>
</a>
</g>
</g>
<!-- Node14&#45;&gt;Node16 -->
<g id="edge16" class="edge">
<title>Node14&#45;&gt;Node16</title>
<path fill="none" stroke="midnightblue" d="M1119.03,-192.43C1244.45,-189.64 1505.27,-179.53 1722.51,-143 1746.84,-138.91 1895.36,-98.41 1968.66,-78.27"/>
<polygon fill="midnightblue" stroke="midnightblue" points="1969.77,-81.59 1978.48,-75.56 1967.91,-74.84 1969.77,-81.59"/>
</g>
<!-- Node17 -->
<g id="node17" class="node">
<title>Node17</title>
<g id="a_node17"><a xlink:href="_field_desc_types_8_h.html" target="_top" xlink:title=" ">
<polygon fill="white" stroke="black" points="392.51,-0.5 392.51,-19.5 568.51,-19.5 568.51,-0.5 392.51,-0.5"/>
<text text-anchor="middle" x="480.51" y="-7.5" font-family="Helvetica,sans-Serif" font-size="10.00">amr&#45;wind/core/FieldDescTypes.H</text>
</a>
</g>
</g>
<!-- Node14&#45;&gt;Node17 -->
<g id="edge17" class="edge">
<title>Node14&#45;&gt;Node17</title>
<path fill="none" stroke="midnightblue" d="M997.59,-184.96C854.51,-158.85 433.11,-81.57 428.51,-76 414.14,-58.64 436.57,-38.31 456.29,-25.07"/>
<polygon fill="midnightblue" stroke="midnightblue" points="458.19,-28.02 464.75,-19.69 454.43,-22.11 458.19,-28.02"/>
</g>
<!-- Node18 -->
<g id="node18" class="node">
<title>Node18</title>
<g id="a_node18"><a xlink:href="_field_utils_8_h.html" target="_top" xlink:title=" ">
<polygon fill="white" stroke="black" points="797.51,-56.5 797.51,-75.5 943.51,-75.5 943.51,-56.5 797.51,-56.5"/>
<text text-anchor="middle" x="870.51" y="-63.5" font-family="Helvetica,sans-Serif" font-size="10.00">amr&#45;wind/core/FieldUtils.H</text>
</a>
</g>
</g>
<!-- Node14&#45;&gt;Node18 -->
<g id="edge18" class="edge">
<title>Node14&#45;&gt;Node18</title>
<path fill="none" stroke="midnightblue" d="M990.94,-184.97C945.73,-176.56 886.09,-162.18 871.51,-143 859.06,-126.63 861.4,-102.02 865.13,-85.27"/>
<polygon fill="midnightblue" stroke="midnightblue" points="868.53,-86.13 867.65,-75.57 861.75,-84.37 868.53,-86.13"/>
</g>
<!-- Node19 -->
<g id="node19" class="node">
<title>Node19</title>
<g id="a_node19"><a xlink:title=" ">
<polygon fill="white" stroke="#bfbfbf" points="1616.01,-0.5 1616.01,-19.5 1725.01,-19.5 1725.01,-0.5 1616.01,-0.5"/>
<text text-anchor="middle" x="1670.51" y="-7.5" font-family="Helvetica,sans-Serif" font-size="10.00">AMReX_MultiFab.H</text>
</a>
</g>
</g>
<!-- Node14&#45;&gt;Node19 -->
<g id="edge50" class="edge">
<title>Node14&#45;&gt;Node19</title>
<path fill="none" stroke="midnightblue" d="M1119.01,-191.02C1268.03,-185.5 1592.2,-170.46 1634.51,-143 1663.04,-124.48 1663.01,-108.94 1671.51,-76 1673.72,-67.39 1671.6,-64.89 1671.51,-56 1671.41,-47.4 1671.21,-37.87 1671.02,-29.8"/>
<polygon fill="midnightblue" stroke="midnightblue" points="1674.51,-29.53 1670.75,-19.63 1667.51,-29.71 1674.51,-29.53"/>
</g>
<!-- Node21 -->
<g id="node21" class="node">
<title>Node21</title>
<g id="a_node21"><a xlink:href="_field_8_h.html" target="_top" xlink:title=" ">
<polygon fill="white" stroke="black" points="1501.51,-118 1501.51,-137 1625.51,-137 1625.51,-118 1501.51,-118"/>
<text text-anchor="middle" x="1563.51" y="-125" font-family="Helvetica,sans-Serif" font-size="10.00">amr&#45;wind/core/Field.H</text>
</a>
</g>
</g>
<!-- Node14&#45;&gt;Node21 -->
<g id="edge22" class="edge">
<title>Node14&#45;&gt;Node21</title>
<path fill="none" stroke="midnightblue" d="M1112.62,-184.97C1210.73,-172.68 1391.02,-150.1 1491.34,-137.54"/>
<polygon fill="midnightblue" stroke="midnightblue" points="1491.9,-141 1501.38,-136.28 1491.03,-134.05 1491.9,-141"/>
</g>
<!-- Node28 -->
<g id="node28" class="node">
<title>Node28</title>
<g id="a_node28"><a xlink:href="_int_field_8_h.html" target="_top" xlink:title=" ">
<polygon fill="white" stroke="black" points="450.01,-118 450.01,-137 587.01,-137 587.01,-118 450.01,-118"/>
<text text-anchor="middle" x="518.51" y="-125" font-family="Helvetica,sans-Serif" font-size="10.00">amr&#45;wind/core/IntField.H</text>
</a>
</g>
</g>
<!-- Node14&#45;&gt;Node28 -->
<g id="edge37" class="edge">
<title>Node14&#45;&gt;Node28</title>
<path fill="none" stroke="midnightblue" d="M969.87,-186.36C881.68,-177.61 730.6,-161.62 601.51,-143 592.77,-141.74 583.55,-140.27 574.55,-138.76"/>
<polygon fill="midnightblue" stroke="midnightblue" points="574.97,-135.28 564.53,-137.04 573.79,-142.18 574.97,-135.28"/>
</g>
<!-- Node29 -->
<g id="node29" class="node">
<title>Node29</title>
<g id="a_node29"><a xlink:href="_scratch_field_8_h.html" target="_top" xlink:title=" ">
<polygon fill="white" stroke="black" points="951.51,-118 951.51,-137 1111.51,-137 1111.51,-118 951.51,-118"/>
<text text-anchor="middle" x="1031.51" y="-125" font-family="Helvetica,sans-Serif" font-size="10.00">amr&#45;wind/core/ScratchField.H</text>
</a>
</g>
</g>
<!-- Node14&#45;&gt;Node29 -->
<g id="edge41" class="edge">
<title>Node14&#45;&gt;Node29</title>
<path fill="none" stroke="midnightblue" d="M1042.75,-184.73C1040.84,-175.18 1037.73,-159.62 1035.26,-147.28"/>
<polygon fill="midnightblue" stroke="midnightblue" points="1038.62,-146.25 1033.23,-137.13 1031.76,-147.62 1038.62,-146.25"/>
</g>
<!-- Node18&#45;&gt;Node17 -->
<g id="edge19" class="edge">
<title>Node18&#45;&gt;Node17</title>
<path fill="none" stroke="midnightblue" d="M808.71,-56.44C738.96,-46.79 625.67,-31.1 552.12,-20.92"/>
<polygon fill="midnightblue" stroke="midnightblue" points="552.4,-17.42 542.01,-19.52 551.44,-24.35 552.4,-17.42"/>
</g>
<!-- Node18&#45;&gt;Node19 -->
<g id="edge20" class="edge">
<title>Node18&#45;&gt;Node19</title>
<path fill="none" stroke="midnightblue" d="M943.62,-60.06C1098.63,-49.6 1458.09,-25.34 1605.58,-15.38"/>
<polygon fill="midnightblue" stroke="midnightblue" points="1606.09,-18.86 1615.83,-14.69 1605.61,-11.87 1606.09,-18.86"/>
</g>
<!-- Node20 -->
<g id="node20" class="node">
<title>Node20</title>
<g id="a_node20"><a xlink:title=" ">
<polygon fill="white" stroke="#bfbfbf" points="808.51,-0.5 808.51,-19.5 932.51,-19.5 932.51,-0.5 808.51,-0.5"/>
<text text-anchor="middle" x="870.51" y="-7.5" font-family="Helvetica,sans-Serif" font-size="10.00">AMReX_Interpolater.H</text>
</a>
</g>
</g>
<!-- Node18&#45;&gt;Node20 -->
<g id="edge21" class="edge">
<title>Node18&#45;&gt;Node20</title>
<path fill="none" stroke="midnightblue" d="M870.51,-56.08C870.51,-49.01 870.51,-38.86 870.51,-29.99"/>
<polygon fill="midnightblue" stroke="midnightblue" points="874.01,-29.75 870.51,-19.75 867.01,-29.75 874.01,-29.75"/>
</g>
<!-- Node21&#45;&gt;Node8 -->
<g id="edge30" class="edge">
<title>Node21&#45;&gt;Node8</title>
<path fill="none" stroke="midnightblue" d="M1598.46,-117.98C1641.68,-107.44 1715.29,-89.49 1762.64,-77.94"/>
<polygon fill="midnightblue" stroke="midnightblue" points="1763.73,-81.28 1772.61,-75.51 1762.07,-74.48 1763.73,-81.28"/>
</g>
<!-- Node21&#45;&gt;Node15 -->
<g id="edge23" class="edge">
<title>Node21&#45;&gt;Node15</title>
<path fill="none" stroke="midnightblue" d="M1501.39,-122.18C1384.17,-113.65 1138.94,-93.94 1104.51,-76 1083.78,-65.2 1067.18,-43.5 1057.36,-28.15"/>
<polygon fill="midnightblue" stroke="midnightblue" points="1060.32,-26.29 1052.14,-19.56 1054.34,-29.93 1060.32,-26.29"/>
</g>
<!-- Node21&#45;&gt;Node16 -->
<g id="edge25" class="edge">
<title>Node21&#45;&gt;Node16</title>
<path fill="none" stroke="midnightblue" d="M1625.73,-119.04C1700.66,-109.92 1830.62,-93.68 1952.51,-76.11"/>
<polygon fill="midnightblue" stroke="midnightblue" points="1953.38,-79.52 1962.77,-74.62 1952.37,-72.59 1953.38,-79.52"/>
</g>
<!-- Node21&#45;&gt;Node17 -->
<g id="edge31" class="edge">
<title>Node21&#45;&gt;Node17</title>
<path fill="none" stroke="midnightblue" d="M1501.37,-123.14C1323.46,-113.43 822.66,-85.43 788.51,-76 769.73,-70.81 768,-62.12 749.51,-56 694.51,-37.79 630.64,-26.71 578.94,-20.1"/>
<polygon fill="midnightblue" stroke="midnightblue" points="579.13,-16.59 568.77,-18.83 578.27,-23.54 579.13,-16.59"/>
</g>
<!-- Node21&#45;&gt;Node19 -->
<g id="edge27" class="edge">
<title>Node21&#45;&gt;Node19</title>
<path fill="none" stroke="midnightblue" d="M1589.07,-117.89C1608.85,-109.97 1635.49,-96.34 1651.51,-76 1661.95,-62.74 1666.66,-43.9 1668.78,-29.91"/>
<polygon fill="midnightblue" stroke="midnightblue" points="1672.26,-30.29 1669.98,-19.94 1665.31,-29.45 1672.26,-30.29"/>
</g>
<!-- Node22 -->
<g id="node22" class="node">
<title>Node22</title>
<g id="a_node22"><a xlink:title=" ">
<polygon fill="white" stroke="#bfbfbf" points="2074.51,-56.5 2074.51,-75.5 2132.51,-75.5 2132.51,-56.5 2074.51,-56.5"/>
<text text-anchor="middle" x="2103.51" y="-63.5" font-family="Helvetica,sans-Serif" font-size="10.00">memory</text>
</a>
</g>
</g>
<!-- Node21&#45;&gt;Node22 -->
<g id="edge24" class="edge">
<title>Node21&#45;&gt;Node22</title>
<path fill="none" stroke="midnightblue" d="M1625.54,-122.78C1718.58,-116.64 1899.9,-102.51 2063.92,-75.87"/>
<polygon fill="midnightblue" stroke="midnightblue" points="2064.9,-79.26 2074.2,-74.18 2063.76,-72.35 2064.9,-79.26"/>
</g>
<!-- Node23 -->
<g id="node23" class="node">
<title>Node23</title>
<g id="a_node23"><a xlink:title=" ">
<polygon fill="white" stroke="#bfbfbf" points="1578.51,-56.5 1578.51,-75.5 1642.51,-75.5 1642.51,-56.5 1578.51,-56.5"/>
<text text-anchor="middle" x="1610.51" y="-63.5" font-family="Helvetica,sans-Serif" font-size="10.00">algorithm</text>
</a>
</g>
</g>
<!-- Node21&#45;&gt;Node23 -->
<g id="edge26" class="edge">
<title>Node21&#45;&gt;Node23</title>
<path fill="none" stroke="midnightblue" d="M1570.24,-117.98C1577.29,-109.05 1588.54,-94.81 1597.36,-83.64"/>
<polygon fill="midnightblue" stroke="midnightblue" points="1600.33,-85.53 1603.78,-75.51 1594.84,-81.19 1600.33,-85.53"/>
</g>
<!-- Node24 -->
<g id="node24" class="node">
<title>Node24</title>
<g id="a_node24"><a xlink:title=" ">
<polygon fill="white" stroke="#bfbfbf" points="1356.01,-56.5 1356.01,-75.5 1455.01,-75.5 1455.01,-56.5 1356.01,-56.5"/>
<text text-anchor="middle" x="1405.51" y="-63.5" font-family="Helvetica,sans-Serif" font-size="10.00">AMReX_BCRec.H</text>
</a>
</g>
</g>
<!-- Node21&#45;&gt;Node24 -->
<g id="edge28" class="edge">
<title>Node21&#45;&gt;Node24</title>
<path fill="none" stroke="midnightblue" d="M1540.87,-117.98C1513.77,-107.77 1468.2,-90.61 1437.5,-79.05"/>
<polygon fill="midnightblue" stroke="midnightblue" points="1438.69,-75.76 1428.1,-75.51 1436.23,-82.31 1438.69,-75.76"/>
</g>
<!-- Node25 -->
<g id="node25" class="node">
<title>Node25</title>
<g id="a_node25"><a xlink:title=" ">
<polygon fill="white" stroke="#bfbfbf" points="1473.01,-56.5 1473.01,-75.5 1560.01,-75.5 1560.01,-56.5 1473.01,-56.5"/>
<text text-anchor="middle" x="1516.51" y="-63.5" font-family="Helvetica,sans-Serif" font-size="10.00">AMReX_Gpu.H</text>
</a>
</g>
</g>
<!-- Node21&#45;&gt;Node25 -->
<g id="edge29" class="edge">
<title>Node21&#45;&gt;Node25</title>
<path fill="none" stroke="midnightblue" d="M1556.77,-117.98C1549.72,-109.05 1538.47,-94.81 1529.65,-83.64"/>
<polygon fill="midnightblue" stroke="midnightblue" points="1532.17,-81.19 1523.23,-75.51 1526.68,-85.53 1532.17,-81.19"/>
</g>
<!-- Node26 -->
<g id="node26" class="node">
<title>Node26</title>
<g id="a_node26"><a xlink:href="_view_field_8_h.html" target="_top" xlink:title=" ">
<polygon fill="white" stroke="black" points="1113.51,-56.5 1113.51,-75.5 1261.51,-75.5 1261.51,-56.5 1113.51,-56.5"/>
<text text-anchor="middle" x="1187.51" y="-63.5" font-family="Helvetica,sans-Serif" font-size="10.00">amr&#45;wind/core/ViewField.H</text>
</a>
</g>
</g>
<!-- Node21&#45;&gt;Node26 -->
<g id="edge32" class="edge">
<title>Node21&#45;&gt;Node26</title>
<path fill="none" stroke="midnightblue" d="M1509.63,-117.98C1441.37,-107.17 1323.87,-88.58 1251.22,-77.08"/>
<polygon fill="midnightblue" stroke="midnightblue" points="1251.7,-73.62 1241.28,-75.51 1250.61,-80.53 1251.7,-73.62"/>
</g>
<!-- Node26&#45;&gt;Node15 -->
<g id="edge33" class="edge">
<title>Node26&#45;&gt;Node15</title>
<path fill="none" stroke="midnightblue" d="M1165.32,-56.44C1142.08,-47.48 1105.36,-33.31 1079.09,-23.18"/>
<polygon fill="midnightblue" stroke="midnightblue" points="1080.17,-19.85 1069.59,-19.52 1077.66,-26.38 1080.17,-19.85"/>
</g>
<!-- Node26&#45;&gt;Node17 -->
<g id="edge34" class="edge">
<title>Node26&#45;&gt;Node17</title>
<path fill="none" stroke="midnightblue" d="M1113.18,-59.32C984.91,-49.53 721.98,-29.44 578.77,-18.51"/>
<polygon fill="midnightblue" stroke="midnightblue" points="578.9,-15.01 568.67,-17.73 578.37,-21.99 578.9,-15.01"/>
</g>
<!-- Node26&#45;&gt;Node19 -->
<g id="edge35" class="edge">
<title>Node26&#45;&gt;Node19</title>
<path fill="none" stroke="midnightblue" d="M1261.65,-56.71C1355.74,-46.19 1516.49,-28.22 1605.83,-18.23"/>
<polygon fill="midnightblue" stroke="midnightblue" points="1606.28,-21.7 1615.83,-17.11 1605.5,-14.75 1606.28,-21.7"/>
</g>
<!-- Node27 -->
<g id="node27" class="node">
<title>Node27</title>
<g id="a_node27"><a xlink:title=" ">
<polygon fill="white" stroke="#bfbfbf" points="1240.51,-0.5 1240.51,-19.5 1338.51,-19.5 1338.51,-0.5 1240.51,-0.5"/>
<text text-anchor="middle" x="1289.51" y="-7.5" font-family="Helvetica,sans-Serif" font-size="10.00">AMReX_Vector.H</text>
</a>
</g>
</g>
<!-- Node26&#45;&gt;Node27 -->
<g id="edge36" class="edge">
<title>Node26&#45;&gt;Node27</title>
<path fill="none" stroke="midnightblue" d="M1203.89,-56.32C1220.18,-47.7 1245.37,-34.36 1264.22,-24.39"/>
<polygon fill="midnightblue" stroke="midnightblue" points="1265.96,-27.43 1273.16,-19.65 1262.68,-21.24 1265.96,-27.43"/>
</g>
<!-- Node28&#45;&gt;Node6 -->
<g id="edge40" class="edge">
<title>Node28&#45;&gt;Node6</title>
<path fill="none" stroke="midnightblue" d="M484.69,-117.98C442.98,-107.46 371.99,-89.56 326.19,-78.01"/>
<polygon fill="midnightblue" stroke="midnightblue" points="326.81,-74.56 316.26,-75.51 325.1,-81.35 326.81,-74.56"/>
</g>
<!-- Node28&#45;&gt;Node15 -->
<g id="edge38" class="edge">
<title>Node28&#45;&gt;Node15</title>
<path fill="none" stroke="midnightblue" d="M517.96,-117.94C517.52,-102.81 519.05,-71.47 537.51,-56 538.66,-55.03 903.49,-23.44 1015.31,-13.78"/>
<polygon fill="midnightblue" stroke="midnightblue" points="1015.66,-17.26 1025.32,-12.91 1015.06,-10.29 1015.66,-17.26"/>
</g>
<!-- Node28&#45;&gt;Node17 -->
<g id="edge39" class="edge">
<title>Node28&#45;&gt;Node17</title>
<path fill="none" stroke="midnightblue" d="M458.52,-118C433.12,-111.1 405.89,-98.61 390.51,-76 374.21,-52.06 408.04,-33.83 438.77,-22.86"/>
<polygon fill="midnightblue" stroke="midnightblue" points="440.22,-26.06 448.58,-19.55 437.98,-19.43 440.22,-26.06"/>
</g>
<!-- Node29&#45;&gt;Node15 -->
<g id="edge42" class="edge">
<title>Node29&#45;&gt;Node15</title>
<path fill="none" stroke="midnightblue" d="M1030.99,-117.74C1030.38,-104.34 1029.85,-77.98 1033.51,-56 1035,-47.02 1037.84,-37.35 1040.57,-29.28"/>
<polygon fill="midnightblue" stroke="midnightblue" points="1043.9,-30.39 1043.98,-19.79 1037.31,-28.02 1043.9,-30.39"/>
</g>
<!-- Node29&#45;&gt;Node17 -->
<g id="edge44" class="edge">
<title>Node29&#45;&gt;Node17</title>
<path fill="none" stroke="midnightblue" d="M979.87,-117.93C966.13,-115.82 951.27,-113.68 937.51,-112 848.91,-101.19 617.06,-116.44 537.51,-76 516.68,-65.41 500.1,-43.66 490.31,-28.24"/>
<polygon fill="midnightblue" stroke="midnightblue" points="493.27,-26.37 485.11,-19.62 487.27,-29.99 493.27,-26.37"/>
</g>
<!-- Node29&#45;&gt;Node19 -->
<g id="edge46" class="edge">
<title>Node29&#45;&gt;Node19</title>
<path fill="none" stroke="midnightblue" d="M1080.38,-117.95C1144.24,-106.62 1252.51,-86.81 1291.51,-76 1316.57,-69.05 1321.26,-62.27 1346.51,-56 1434.92,-34.05 1539.75,-21.94 1605.71,-15.95"/>
<polygon fill="midnightblue" stroke="midnightblue" points="1606.3,-19.41 1615.95,-15.05 1605.68,-12.44 1606.3,-19.41"/>
</g>
<!-- Node29&#45;&gt;Node26 -->
<g id="edge45" class="edge">
<title>Node29&#45;&gt;Node26</title>
<path fill="none" stroke="midnightblue" d="M1053.86,-117.98C1080.5,-107.81 1125.22,-90.76 1155.52,-79.2"/>
<polygon fill="midnightblue" stroke="midnightblue" points="1157.1,-82.34 1165.2,-75.51 1154.61,-75.8 1157.1,-82.34"/>
</g>
<!-- Node29&#45;&gt;Node27 -->
<g id="edge47" class="edge">
<title>Node29&#45;&gt;Node27</title>
<path fill="none" stroke="midnightblue" d="M1077.82,-117.98C1145.29,-105.38 1263.42,-82.57 1270.51,-76 1283.16,-64.27 1287.55,-44.63 1288.99,-30"/>
<polygon fill="midnightblue" stroke="midnightblue" points="1292.51,-29.78 1289.62,-19.59 1285.53,-29.36 1292.51,-29.78"/>
</g>
<!-- Node30 -->
<g id="node30" class="node">
<title>Node30</title>
<g id="a_node30"><a xlink:title=" ">
<polygon fill="white" stroke="#bfbfbf" points="547.01,-56.5 547.01,-75.5 592.01,-75.5 592.01,-56.5 547.01,-56.5"/>
<text text-anchor="middle" x="569.51" y="-63.5" font-family="Helvetica,sans-Serif" font-size="10.00">utility</text>
</a>
</g>
</g>
<!-- Node29&#45;&gt;Node30 -->
<g id="edge43" class="edge">
<title>Node29&#45;&gt;Node30</title>
<path fill="none" stroke="midnightblue" d="M978.87,-117.94C965.4,-115.87 950.93,-113.75 937.51,-112 791.35,-92.93 750.06,-104.58 601.99,-75.99"/>
<polygon fill="midnightblue" stroke="midnightblue" points="602.57,-72.54 592.08,-74.05 601.22,-79.41 602.57,-72.54"/>
</g>
<!-- Node31 -->
<g id="node31" class="node">
<title>Node31</title>
<g id="a_node31"><a xlink:title=" ">
<polygon fill="white" stroke="#bfbfbf" points="610.01,-56.5 610.01,-75.5 741.01,-75.5 741.01,-56.5 610.01,-56.5"/>
<text text-anchor="middle" x="675.51" y="-63.5" font-family="Helvetica,sans-Serif" font-size="10.00">AMReX_PhysBCFunct.H</text>
</a>
</g>
</g>
<!-- Node29&#45;&gt;Node31 -->
<g id="edge48" class="edge">
<title>Node29&#45;&gt;Node31</title>
<path fill="none" stroke="midnightblue" d="M980.5,-117.98C916.13,-107.22 805.52,-88.73 736.68,-77.22"/>
<polygon fill="midnightblue" stroke="midnightblue" points="736.86,-73.71 726.42,-75.51 735.7,-80.61 736.86,-73.71"/>
</g>
<!-- Node32&#45;&gt;Node8 -->
<g id="edge68" class="edge">
<title>Node32&#45;&gt;Node8</title>
<path fill="none" stroke="midnightblue" d="M1876.41,-179.24C1867.24,-169.53 1855.38,-156.09 1846.51,-143 1833.81,-124.27 1822.4,-100.87 1815.24,-85.02"/>
<polygon fill="midnightblue" stroke="midnightblue" points="1818.43,-83.56 1811.19,-75.82 1812.02,-86.38 1818.43,-83.56"/>
</g>
<!-- Node32&#45;&gt;Node15 -->
<g id="edge53" class="edge">
<title>Node32&#45;&gt;Node15</title>
<path fill="none" stroke="midnightblue" d="M1812.82,-184.37C1614.97,-160.84 1105.65,-98.41 1076.51,-76 1061.99,-64.84 1054.56,-44.81 1050.88,-29.93"/>
<polygon fill="midnightblue" stroke="midnightblue" points="1054.23,-28.84 1048.74,-19.78 1047.38,-30.29 1054.23,-28.84"/>
</g>
<!-- Node32&#45;&gt;Node17 -->
<g id="edge67" class="edge">
<title>Node32&#45;&gt;Node17</title>
<path fill="none" stroke="midnightblue" d="M1812.88,-192C1650.79,-188.29 1264.64,-176.42 942.51,-143 918.29,-140.49 528.85,-90.78 509.51,-76 494.95,-64.88 487.53,-44.85 483.86,-29.95"/>
<polygon fill="midnightblue" stroke="midnightblue" points="487.21,-28.86 481.73,-19.79 480.36,-30.3 487.21,-28.86"/>
</g>
<!-- Node33 -->
<g id="node33" class="node">
<title>Node33</title>
<g id="a_node33"><a xlink:href="_factory_8_h.html" target="_top" xlink:title=" ">
<polygon fill="white" stroke="black" points="2228.51,-118 2228.51,-137 2362.51,-137 2362.51,-118 2228.51,-118"/>
<text text-anchor="middle" x="2295.51" y="-125" font-family="Helvetica,sans-Serif" font-size="10.00">amr&#45;wind/core/Factory.H</text>
</a>
</g>
</g>
<!-- Node32&#45;&gt;Node33 -->
<g id="edge54" class="edge">
<title>Node32&#45;&gt;Node33</title>
<path fill="none" stroke="midnightblue" d="M1968.11,-181.04C2044.85,-168.73 2160.83,-150.12 2232.17,-138.66"/>
<polygon fill="midnightblue" stroke="midnightblue" points="2233.04,-142.07 2242.36,-137.03 2231.93,-135.16 2233.04,-142.07"/>
</g>
<!-- Node37 -->
<g id="node37" class="node">
<title>Node37</title>
<g id="a_node37"><a xlink:href="_coll_mgr_8_h.html" target="_top" xlink:title=" ">
<polygon fill="white" stroke="black" points="2035.01,-118 2035.01,-137 2172.01,-137 2172.01,-118 2035.01,-118"/>
<text text-anchor="middle" x="2103.51" y="-125" font-family="Helvetica,sans-Serif" font-size="10.00">amr&#45;wind/core/CollMgr.H</text>
</a>
</g>
</g>
<!-- Node32&#45;&gt;Node37 -->
<g id="edge60" class="edge">
<title>Node32&#45;&gt;Node37</title>
<path fill="none" stroke="midnightblue" d="M1936.46,-179.48C1975.14,-167.67 2029.77,-151 2065.89,-139.98"/>
<polygon fill="midnightblue" stroke="midnightblue" points="2067.01,-143.3 2075.56,-137.03 2064.97,-136.6 2067.01,-143.3"/>
</g>
<!-- Node38 -->
<g id="node38" class="node">
<title>Node38</title>
<g id="a_node38"><a xlink:href="_p_d_e_fields_8_h.html" target="_top" xlink:title=" ">
<polygon fill="white" stroke="black" points="1856.01,-112.5 1856.01,-142.5 2011.01,-142.5 2011.01,-112.5 1856.01,-112.5"/>
<text text-anchor="start" x="1864.01" y="-130.5" font-family="Helvetica,sans-Serif" font-size="10.00">amr&#45;wind/equation_systems</text>
<text text-anchor="middle" x="1933.51" y="-119.5" font-family="Helvetica,sans-Serif" font-size="10.00">/PDEFields.H</text>
</a>
</g>
</g>
<!-- Node32&#45;&gt;Node38 -->
<g id="edge65" class="edge">
<title>Node32&#45;&gt;Node38</title>
<path fill="none" stroke="midnightblue" d="M1899.84,-179.4C1905.3,-171.13 1912.33,-160.51 1918.55,-151.1"/>
<polygon fill="midnightblue" stroke="midnightblue" points="1921.6,-152.85 1924.19,-142.58 1915.76,-148.99 1921.6,-152.85"/>
</g>
<!-- Node33&#45;&gt;Node16 -->
<g id="edge56" class="edge">
<title>Node33&#45;&gt;Node16</title>
<path fill="none" stroke="midnightblue" d="M2254.53,-117.98C2203.35,-107.33 2115.78,-89.11 2060.36,-77.58"/>
<polygon fill="midnightblue" stroke="midnightblue" points="2060.91,-74.12 2050.41,-75.51 2059.48,-80.97 2060.91,-74.12"/>
</g>
<!-- Node33&#45;&gt;Node22 -->
<g id="edge55" class="edge">
<title>Node33&#45;&gt;Node22</title>
<path fill="none" stroke="midnightblue" d="M2268,-117.98C2234.63,-107.64 2178.24,-90.16 2140.94,-78.6"/>
<polygon fill="midnightblue" stroke="midnightblue" points="2141.55,-75.13 2130.96,-75.51 2139.48,-81.81 2141.55,-75.13"/>
</g>
<!-- Node34 -->
<g id="node34" class="node">
<title>Node34</title>
<g id="a_node34"><a xlink:title=" ">
<polygon fill="white" stroke="#bfbfbf" points="2264.51,-56.5 2264.51,-75.5 2324.51,-75.5 2324.51,-56.5 2264.51,-56.5"/>
<text text-anchor="middle" x="2294.51" y="-63.5" font-family="Helvetica,sans-Serif" font-size="10.00">iostream</text>
</a>
</g>
</g>
<!-- Node33&#45;&gt;Node34 -->
<g id="edge57" class="edge">
<title>Node33&#45;&gt;Node34</title>
<path fill="none" stroke="midnightblue" d="M2295.36,-117.98C2295.22,-109.58 2295,-96.48 2294.82,-85.66"/>
<polygon fill="midnightblue" stroke="midnightblue" points="2298.32,-85.45 2294.65,-75.51 2291.32,-85.57 2298.32,-85.45"/>
</g>
<!-- Node35 -->
<g id="node35" class="node">
<title>Node35</title>
<g id="a_node35"><a xlink:title=" ">
<polygon fill="white" stroke="#bfbfbf" points="2342.51,-56.5 2342.51,-75.5 2432.51,-75.5 2432.51,-56.5 2342.51,-56.5"/>
<text text-anchor="middle" x="2387.51" y="-63.5" font-family="Helvetica,sans-Serif" font-size="10.00">AMReX_Print.H</text>
</a>
</g>
</g>
<!-- Node33&#45;&gt;Node35 -->
<g id="edge58" class="edge">
<title>Node33&#45;&gt;Node35</title>
<path fill="none" stroke="midnightblue" d="M2308.69,-117.98C2323.58,-108.34 2348.05,-92.52 2365.78,-81.05"/>
<polygon fill="midnightblue" stroke="midnightblue" points="2367.85,-83.88 2374.35,-75.51 2364.05,-78 2367.85,-83.88"/>
</g>
<!-- Node36 -->
<g id="node36" class="node">
<title>Node36</title>
<g id="a_node36"><a xlink:title=" ">
<polygon fill="white" stroke="#bfbfbf" points="2450.51,-56.5 2450.51,-75.5 2512.51,-75.5 2512.51,-56.5 2450.51,-56.5"/>
<text text-anchor="middle" x="2481.51" y="-63.5" font-family="Helvetica,sans-Serif" font-size="10.00">AMReX.H</text>
</a>
</g>
</g>
<!-- Node33&#45;&gt;Node36 -->
<g id="edge59" class="edge">
<title>Node33&#45;&gt;Node36</title>
<path fill="none" stroke="midnightblue" d="M2322.15,-117.98C2354.47,-107.64 2409.1,-90.16 2445.24,-78.6"/>
<polygon fill="midnightblue" stroke="midnightblue" points="2446.45,-81.89 2454.91,-75.51 2444.31,-75.22 2446.45,-81.89"/>
</g>
<!-- Node37&#45;&gt;Node15 -->
<g id="edge61" class="edge">
<title>Node37&#45;&gt;Node15</title>
<path fill="none" stroke="midnightblue" d="M2114.23,-117.98C2130.94,-103.72 2159.52,-74.75 2141.51,-56 2106.44,-19.52 1282.05,-22.24 1231.51,-20 1178.29,-17.65 1116.43,-14.55 1079.7,-12.67"/>
<polygon fill="midnightblue" stroke="midnightblue" points="1079.76,-9.16 1069.59,-12.15 1079.4,-16.16 1079.76,-9.16"/>
</g>
<!-- Node37&#45;&gt;Node16 -->
<g id="edge63" class="edge">
<title>Node37&#45;&gt;Node16</title>
<path fill="none" stroke="midnightblue" d="M2090.04,-117.98C2074.82,-108.34 2049.82,-92.52 2031.7,-81.05"/>
<polygon fill="midnightblue" stroke="midnightblue" points="2033.27,-77.9 2022.95,-75.51 2029.53,-83.81 2033.27,-77.9"/>
</g>
<!-- Node37&#45;&gt;Node22 -->
<g id="edge62" class="edge">
<title>Node37&#45;&gt;Node22</title>
<path fill="none" stroke="midnightblue" d="M2103.51,-117.98C2103.51,-109.58 2103.51,-96.48 2103.51,-85.66"/>
<polygon fill="midnightblue" stroke="midnightblue" points="2107.01,-85.51 2103.51,-75.51 2100.01,-85.51 2107.01,-85.51"/>
</g>
<!-- Node37&#45;&gt;Node27 -->
<g id="edge64" class="edge">
<title>Node37&#45;&gt;Node27</title>
<path fill="none" stroke="midnightblue" d="M2123.33,-117.98C2151.21,-104.88 2196.29,-78.92 2174.51,-56 2160.25,-41.01 1544.86,-19.43 1348.83,-12.93"/>
<polygon fill="midnightblue" stroke="midnightblue" points="1348.82,-9.42 1338.71,-12.59 1348.59,-16.42 1348.82,-9.42"/>
</g>
<!-- Node39 -->
<g id="node39" class="node">
<title>Node39</title>
<g id="a_node39"><a xlink:title=" ">
<polygon fill="white" stroke="#bfbfbf" points="1896.51,-56.5 1896.51,-75.5 1944.51,-75.5 1944.51,-56.5 1896.51,-56.5"/>
<text text-anchor="middle" x="1920.51" y="-63.5" font-family="Helvetica,sans-Serif" font-size="10.00">iosfwd</text>
</a>
</g>
</g>
<!-- Node38&#45;&gt;Node39 -->
<g id="edge66" class="edge">
<title>Node38&#45;&gt;Node39</title>
<path fill="none" stroke="midnightblue" d="M1930.42,-112.4C1928.67,-104.38 1926.46,-94.23 1924.56,-85.57"/>
<polygon fill="midnightblue" stroke="midnightblue" points="1927.95,-84.68 1922.4,-75.66 1921.11,-86.17 1927.95,-84.68"/>
</g>
<!-- Node40&#45;&gt;Node19 -->
<g id="edge72" class="edge">
<title>Node40&#45;&gt;Node19</title>
<path fill="none" stroke="midnightblue" d="M2363.21,-184.97C2416.72,-176.87 2485.6,-162.94 2505.51,-143 2533.28,-115.18 2548.56,-84.52 2521.51,-56 2494.55,-27.58 1929.5,-15.38 1735.34,-12.02"/>
<polygon fill="midnightblue" stroke="midnightblue" points="1735.34,-8.52 1725.28,-11.85 1735.22,-15.52 1735.34,-8.52"/>
</g>
<!-- Node40&#45;&gt;Node33 -->
<g id="edge70" class="edge">
<title>Node40&#45;&gt;Node33</title>
<path fill="none" stroke="midnightblue" d="M2295.51,-184.73C2295.51,-175.18 2295.51,-159.62 2295.51,-147.28"/>
<polygon fill="midnightblue" stroke="midnightblue" points="2299.01,-147.13 2295.51,-137.13 2292.01,-147.13 2299.01,-147.13"/>
</g>
<!-- Node40&#45;&gt;Node37 -->
<g id="edge71" class="edge">
<title>Node40&#45;&gt;Node37</title>
<path fill="none" stroke="midnightblue" d="M2270.01,-184.87C2236.21,-173.42 2176.41,-153.18 2138.43,-140.32"/>
<polygon fill="midnightblue" stroke="midnightblue" points="2139.4,-136.96 2128.8,-137.06 2137.15,-143.59 2139.4,-136.96"/>
</g>
<!-- Node41 -->
<g id="node41" class="node">
<title>Node41</title>
<g id="a_node41"><a xlink:title=" ">
<polygon fill="white" stroke="#bfbfbf" points="2381.01,-118 2381.01,-137 2496.01,-137 2496.01,-118 2381.01,-118"/>
<text text-anchor="middle" x="2438.51" y="-125" font-family="Helvetica,sans-Serif" font-size="10.00">AMReX_Geometry.H</text>
</a>
</g>
</g>
<!-- Node40&#45;&gt;Node41 -->
<g id="edge73" class="edge">
<title>Node40&#45;&gt;Node41</title>
<path fill="none" stroke="midnightblue" d="M2314.49,-184.87C2338.96,-173.75 2381.71,-154.32 2410.06,-141.43"/>
<polygon fill="midnightblue" stroke="midnightblue" points="2411.78,-144.49 2419.44,-137.17 2408.89,-138.12 2411.78,-144.49"/>
</g>
<!-- Node42&#45;&gt;Node19 -->
<g id="edge78" class="edge">
<title>Node42&#45;&gt;Node19</title>
<path fill="none" stroke="midnightblue" d="M2135.27,-184.92C2149.51,-176.29 2169.83,-161.6 2180.51,-143 2199.91,-109.2 2217.85,-84.72 2191.51,-56 2161.22,-22.99 1867.98,-14.13 1735.23,-11.81"/>
<polygon fill="midnightblue" stroke="midnightblue" points="1735.24,-8.31 1725.19,-11.64 1735.13,-15.3 1735.24,-8.31"/>
</g>
<!-- Node42&#45;&gt;Node21 -->
<g id="edge77" class="edge">
<title>Node42&#45;&gt;Node21</title>
<path fill="none" stroke="midnightblue" d="M2046.53,-184.97C1939.79,-172.49 1742.24,-149.4 1635.85,-136.96"/>
<polygon fill="midnightblue" stroke="midnightblue" points="1636.19,-133.47 1625.85,-135.79 1635.37,-140.43 1636.19,-133.47"/>
</g>
<!-- Node42&#45;&gt;Node33 -->
<g id="edge76" class="edge">
<title>Node42&#45;&gt;Node33</title>
<path fill="none" stroke="midnightblue" d="M2142.88,-184.87C2173.6,-173.52 2227.75,-153.52 2262.6,-140.65"/>
<polygon fill="midnightblue" stroke="midnightblue" points="2264.15,-143.81 2272.32,-137.06 2261.72,-137.24 2264.15,-143.81"/>
</g>
<!-- Node42&#45;&gt;Node37 -->
<g id="edge75" class="edge">
<title>Node42&#45;&gt;Node37</title>
<path fill="none" stroke="midnightblue" d="M2117.35,-184.73C2114.97,-175.09 2111.09,-159.3 2108.04,-146.91"/>
<polygon fill="midnightblue" stroke="midnightblue" points="2111.42,-146 2105.63,-137.13 2104.62,-147.67 2111.42,-146"/>
</g>
<!-- Node42&#45;&gt;Node41 -->
<g id="edge79" class="edge">
<title>Node42&#45;&gt;Node41</title>
<path fill="none" stroke="midnightblue" d="M2163.25,-184.95C2213.54,-175.06 2298.56,-158.2 2371.51,-143 2377.33,-141.79 2383.43,-140.49 2389.48,-139.2"/>
<polygon fill="midnightblue" stroke="midnightblue" points="2390.51,-142.56 2399.56,-137.04 2389.04,-135.71 2390.51,-142.56"/>
</g>
</g>
</svg>
